<svg width="337" height="454" viewBox="0 0 337 454" fill="none" xmlns="http://www.w3.org/2000/svg">
<rect x="22" y="33" width="315" height="421" rx="64" fill="#C4C4C4"/>
<circle cx="88.5" cy="130.5" r="16.5" fill="#D80404"/>
<path d="M139.071 143H135.579V117.206H139.071V143ZM149.984 143.288C148.544 143.288 147.434 142.886 146.654 142.082C145.886 141.278 145.502 140.12 145.502 138.608V127.448H143.306C143.114 127.448 142.952 127.394 142.82 127.286C142.688 127.166 142.622 126.986 142.622 126.746V125.468L145.61 125.09L146.348 119.456C146.384 119.276 146.462 119.132 146.582 119.024C146.714 118.904 146.882 118.844 147.086 118.844H148.706V125.126H153.98V127.448H148.706V138.392C148.706 139.16 148.892 139.73 149.264 140.102C149.636 140.474 150.116 140.66 150.704 140.66C151.04 140.66 151.328 140.618 151.568 140.534C151.82 140.438 152.036 140.336 152.216 140.228C152.396 140.12 152.546 140.024 152.666 139.94C152.798 139.844 152.912 139.796 153.008 139.796C153.176 139.796 153.326 139.898 153.458 140.102L154.394 141.632C153.842 142.148 153.176 142.556 152.396 142.856C151.616 143.144 150.812 143.288 149.984 143.288ZM169.387 131.894C169.387 131.15 169.279 130.472 169.063 129.86C168.859 129.236 168.553 128.702 168.145 128.258C167.749 127.802 167.263 127.454 166.687 127.214C166.111 126.962 165.457 126.836 164.725 126.836C163.189 126.836 161.971 127.286 161.071 128.186C160.183 129.074 159.631 130.31 159.415 131.894H169.387ZM171.979 140.444C171.583 140.924 171.109 141.344 170.557 141.704C170.005 142.052 169.411 142.34 168.775 142.568C168.151 142.796 167.503 142.964 166.831 143.072C166.159 143.192 165.493 143.252 164.833 143.252C163.573 143.252 162.409 143.042 161.341 142.622C160.285 142.19 159.367 141.566 158.587 140.75C157.819 139.922 157.219 138.902 156.787 137.69C156.355 136.478 156.139 135.086 156.139 133.514C156.139 132.242 156.331 131.054 156.715 129.95C157.111 128.846 157.675 127.892 158.407 127.088C159.139 126.272 160.033 125.636 161.089 125.18C162.145 124.712 163.333 124.478 164.653 124.478C165.745 124.478 166.753 124.664 167.677 125.036C168.613 125.396 169.417 125.924 170.089 126.62C170.773 127.304 171.307 128.156 171.691 129.176C172.075 130.184 172.267 131.336 172.267 132.632C172.267 133.136 172.213 133.472 172.105 133.64C171.997 133.808 171.793 133.892 171.493 133.892H159.307C159.343 135.044 159.499 136.046 159.775 136.898C160.063 137.75 160.459 138.464 160.963 139.04C161.467 139.604 162.067 140.03 162.763 140.318C163.459 140.594 164.239 140.732 165.103 140.732C165.907 140.732 166.597 140.642 167.173 140.462C167.761 140.27 168.265 140.066 168.685 139.85C169.105 139.634 169.453 139.436 169.729 139.256C170.017 139.064 170.263 138.968 170.467 138.968C170.731 138.968 170.935 139.07 171.079 139.274L171.979 140.444ZM176.202 143V124.766H178.128C178.584 124.766 178.866 124.988 178.974 125.432L179.208 127.304C179.88 126.476 180.636 125.798 181.476 125.27C182.316 124.742 183.288 124.478 184.392 124.478C185.616 124.478 186.606 124.82 187.362 125.504C188.13 126.188 188.682 127.112 189.018 128.276C189.282 127.616 189.618 127.046 190.026 126.566C190.446 126.086 190.914 125.69 191.43 125.378C191.946 125.066 192.492 124.838 193.068 124.694C193.656 124.55 194.25 124.478 194.85 124.478C195.81 124.478 196.662 124.634 197.406 124.946C198.162 125.246 198.798 125.69 199.314 126.278C199.842 126.866 200.244 127.592 200.52 128.456C200.796 129.308 200.934 130.286 200.934 131.39V143H197.712V131.39C197.712 129.962 197.4 128.882 196.776 128.15C196.152 127.406 195.252 127.034 194.076 127.034C193.548 127.034 193.044 127.13 192.564 127.322C192.096 127.502 191.682 127.772 191.322 128.132C190.962 128.492 190.674 128.948 190.458 129.5C190.254 130.04 190.152 130.67 190.152 131.39V143H186.93V131.39C186.93 129.926 186.636 128.834 186.048 128.114C185.46 127.394 184.602 127.034 183.474 127.034C182.682 127.034 181.95 127.25 181.278 127.682C180.606 128.102 179.988 128.678 179.424 129.41V143H176.202ZM223.061 117.152V143H219.839V122.966C219.839 122.69 219.845 122.408 219.857 122.12C219.869 121.832 219.887 121.538 219.911 121.238L215.825 124.802C215.693 124.91 215.543 124.994 215.375 125.054C215.219 125.114 215.057 125.144 214.889 125.144C214.721 125.132 214.559 125.096 214.403 125.036C214.259 124.964 214.133 124.862 214.025 124.73L213.071 123.578L220.451 117.152H223.061Z" fill="#5F0F0F"/>
<circle cx="88.5" cy="205.5" r="16.5" fill="#D1B628"/>
<path d="M139.071 218H135.579V192.206H139.071V218ZM149.984 218.288C148.544 218.288 147.434 217.886 146.654 217.082C145.886 216.278 145.502 215.12 145.502 213.608V202.448H143.306C143.114 202.448 142.952 202.394 142.82 202.286C142.688 202.166 142.622 201.986 142.622 201.746V200.468L145.61 200.09L146.348 194.456C146.384 194.276 146.462 194.132 146.582 194.024C146.714 193.904 146.882 193.844 147.086 193.844H148.706V200.126H153.98V202.448H148.706V213.392C148.706 214.16 148.892 214.73 149.264 215.102C149.636 215.474 150.116 215.66 150.704 215.66C151.04 215.66 151.328 215.618 151.568 215.534C151.82 215.438 152.036 215.336 152.216 215.228C152.396 215.12 152.546 215.024 152.666 214.94C152.798 214.844 152.912 214.796 153.008 214.796C153.176 214.796 153.326 214.898 153.458 215.102L154.394 216.632C153.842 217.148 153.176 217.556 152.396 217.856C151.616 218.144 150.812 218.288 149.984 218.288ZM169.387 206.894C169.387 206.15 169.279 205.472 169.063 204.86C168.859 204.236 168.553 203.702 168.145 203.258C167.749 202.802 167.263 202.454 166.687 202.214C166.111 201.962 165.457 201.836 164.725 201.836C163.189 201.836 161.971 202.286 161.071 203.186C160.183 204.074 159.631 205.31 159.415 206.894H169.387ZM171.979 215.444C171.583 215.924 171.109 216.344 170.557 216.704C170.005 217.052 169.411 217.34 168.775 217.568C168.151 217.796 167.503 217.964 166.831 218.072C166.159 218.192 165.493 218.252 164.833 218.252C163.573 218.252 162.409 218.042 161.341 217.622C160.285 217.19 159.367 216.566 158.587 215.75C157.819 214.922 157.219 213.902 156.787 212.69C156.355 211.478 156.139 210.086 156.139 208.514C156.139 207.242 156.331 206.054 156.715 204.95C157.111 203.846 157.675 202.892 158.407 202.088C159.139 201.272 160.033 200.636 161.089 200.18C162.145 199.712 163.333 199.478 164.653 199.478C165.745 199.478 166.753 199.664 167.677 200.036C168.613 200.396 169.417 200.924 170.089 201.62C170.773 202.304 171.307 203.156 171.691 204.176C172.075 205.184 172.267 206.336 172.267 207.632C172.267 208.136 172.213 208.472 172.105 208.64C171.997 208.808 171.793 208.892 171.493 208.892H159.307C159.343 210.044 159.499 211.046 159.775 211.898C160.063 212.75 160.459 213.464 160.963 214.04C161.467 214.604 162.067 215.03 162.763 215.318C163.459 215.594 164.239 215.732 165.103 215.732C165.907 215.732 166.597 215.642 167.173 215.462C167.761 215.27 168.265 215.066 168.685 214.85C169.105 214.634 169.453 214.436 169.729 214.256C170.017 214.064 170.263 213.968 170.467 213.968C170.731 213.968 170.935 214.07 171.079 214.274L171.979 215.444ZM176.202 218V199.766H178.128C178.584 199.766 178.866 199.988 178.974 200.432L179.208 202.304C179.88 201.476 180.636 200.798 181.476 200.27C182.316 199.742 183.288 199.478 184.392 199.478C185.616 199.478 186.606 199.82 187.362 200.504C188.13 201.188 188.682 202.112 189.018 203.276C189.282 202.616 189.618 202.046 190.026 201.566C190.446 201.086 190.914 200.69 191.43 200.378C191.946 200.066 192.492 199.838 193.068 199.694C193.656 199.55 194.25 199.478 194.85 199.478C195.81 199.478 196.662 199.634 197.406 199.946C198.162 200.246 198.798 200.69 199.314 201.278C199.842 201.866 200.244 202.592 200.52 203.456C200.796 204.308 200.934 205.286 200.934 206.39V218H197.712V206.39C197.712 204.962 197.4 203.882 196.776 203.15C196.152 202.406 195.252 202.034 194.076 202.034C193.548 202.034 193.044 202.13 192.564 202.322C192.096 202.502 191.682 202.772 191.322 203.132C190.962 203.492 190.674 203.948 190.458 204.5C190.254 205.04 190.152 205.67 190.152 206.39V218H186.93V206.39C186.93 204.926 186.636 203.834 186.048 203.114C185.46 202.394 184.602 202.034 183.474 202.034C182.682 202.034 181.95 202.25 181.278 202.682C180.606 203.102 179.988 203.678 179.424 204.41V218H176.202ZM223.061 192.152V218H219.839V197.966C219.839 197.69 219.845 197.408 219.857 197.12C219.869 196.832 219.887 196.538 219.911 196.238L215.825 199.802C215.693 199.91 215.543 199.994 215.375 200.054C215.219 200.114 215.057 200.144 214.889 200.144C214.721 200.132 214.559 200.096 214.403 200.036C214.259 199.964 214.133 199.862 214.025 199.73L213.071 198.578L220.451 192.152H223.061Z" fill="#A4875D"/>
<circle cx="88.5" cy="280.5" r="16.5" fill="#22671C"/>
<path d="M139.071 293H135.579V267.206H139.071V293ZM149.984 293.288C148.544 293.288 147.434 292.886 146.654 292.082C145.886 291.278 145.502 290.12 145.502 288.608V277.448H143.306C143.114 277.448 142.952 277.394 142.82 277.286C142.688 277.166 142.622 276.986 142.622 276.746V275.468L145.61 275.09L146.348 269.456C146.384 269.276 146.462 269.132 146.582 269.024C146.714 268.904 146.882 268.844 147.086 268.844H148.706V275.126H153.98V277.448H148.706V288.392C148.706 289.16 148.892 289.73 149.264 290.102C149.636 290.474 150.116 290.66 150.704 290.66C151.04 290.66 151.328 290.618 151.568 290.534C151.82 290.438 152.036 290.336 152.216 290.228C152.396 290.12 152.546 290.024 152.666 289.94C152.798 289.844 152.912 289.796 153.008 289.796C153.176 289.796 153.326 289.898 153.458 290.102L154.394 291.632C153.842 292.148 153.176 292.556 152.396 292.856C151.616 293.144 150.812 293.288 149.984 293.288ZM169.387 281.894C169.387 281.15 169.279 280.472 169.063 279.86C168.859 279.236 168.553 278.702 168.145 278.258C167.749 277.802 167.263 277.454 166.687 277.214C166.111 276.962 165.457 276.836 164.725 276.836C163.189 276.836 161.971 277.286 161.071 278.186C160.183 279.074 159.631 280.31 159.415 281.894H169.387ZM171.979 290.444C171.583 290.924 171.109 291.344 170.557 291.704C170.005 292.052 169.411 292.34 168.775 292.568C168.151 292.796 167.503 292.964 166.831 293.072C166.159 293.192 165.493 293.252 164.833 293.252C163.573 293.252 162.409 293.042 161.341 292.622C160.285 292.19 159.367 291.566 158.587 290.75C157.819 289.922 157.219 288.902 156.787 287.69C156.355 286.478 156.139 285.086 156.139 283.514C156.139 282.242 156.331 281.054 156.715 279.95C157.111 278.846 157.675 277.892 158.407 277.088C159.139 276.272 160.033 275.636 161.089 275.18C162.145 274.712 163.333 274.478 164.653 274.478C165.745 274.478 166.753 274.664 167.677 275.036C168.613 275.396 169.417 275.924 170.089 276.62C170.773 277.304 171.307 278.156 171.691 279.176C172.075 280.184 172.267 281.336 172.267 282.632C172.267 283.136 172.213 283.472 172.105 283.64C171.997 283.808 171.793 283.892 171.493 283.892H159.307C159.343 285.044 159.499 286.046 159.775 286.898C160.063 287.75 160.459 288.464 160.963 289.04C161.467 289.604 162.067 290.03 162.763 290.318C163.459 290.594 164.239 290.732 165.103 290.732C165.907 290.732 166.597 290.642 167.173 290.462C167.761 290.27 168.265 290.066 168.685 289.85C169.105 289.634 169.453 289.436 169.729 289.256C170.017 289.064 170.263 288.968 170.467 288.968C170.731 288.968 170.935 289.07 171.079 289.274L171.979 290.444ZM176.202 293V274.766H178.128C178.584 274.766 178.866 274.988 178.974 275.432L179.208 277.304C179.88 276.476 180.636 275.798 181.476 275.27C182.316 274.742 183.288 274.478 184.392 274.478C185.616 274.478 186.606 274.82 187.362 275.504C188.13 276.188 188.682 277.112 189.018 278.276C189.282 277.616 189.618 277.046 190.026 276.566C190.446 276.086 190.914 275.69 191.43 275.378C191.946 275.066 192.492 274.838 193.068 274.694C193.656 274.55 194.25 274.478 194.85 274.478C195.81 274.478 196.662 274.634 197.406 274.946C198.162 275.246 198.798 275.69 199.314 276.278C199.842 276.866 200.244 277.592 200.52 278.456C200.796 279.308 200.934 280.286 200.934 281.39V293H197.712V281.39C197.712 279.962 197.4 278.882 196.776 278.15C196.152 277.406 195.252 277.034 194.076 277.034C193.548 277.034 193.044 277.13 192.564 277.322C192.096 277.502 191.682 277.772 191.322 278.132C190.962 278.492 190.674 278.948 190.458 279.5C190.254 280.04 190.152 280.67 190.152 281.39V293H186.93V281.39C186.93 279.926 186.636 278.834 186.048 278.114C185.46 277.394 184.602 277.034 183.474 277.034C182.682 277.034 181.95 277.25 181.278 277.682C180.606 278.102 179.988 278.678 179.424 279.41V293H176.202ZM223.061 267.152V293H219.839V272.966C219.839 272.69 219.845 272.408 219.857 272.12C219.869 271.832 219.887 271.538 219.911 271.238L215.825 274.802C215.693 274.91 215.543 274.994 215.375 275.054C215.219 275.114 215.057 275.144 214.889 275.144C214.721 275.132 214.559 275.096 214.403 275.036C214.259 274.964 214.133 274.862 214.025 274.73L213.071 273.578L220.451 267.152H223.061Z" fill="#324027"/>
<circle cx="88.5" cy="355.5" r="16.5" fill="#231966"/>
<path d="M139.071 368H135.579V342.206H139.071V368ZM149.984 368.288C148.544 368.288 147.434 367.886 146.654 367.082C145.886 366.278 145.502 365.12 145.502 363.608V352.448H143.306C143.114 352.448 142.952 352.394 142.82 352.286C142.688 352.166 142.622 351.986 142.622 351.746V350.468L145.61 350.09L146.348 344.456C146.384 344.276 146.462 344.132 146.582 344.024C146.714 343.904 146.882 343.844 147.086 343.844H148.706V350.126H153.98V352.448H148.706V363.392C148.706 364.16 148.892 364.73 149.264 365.102C149.636 365.474 150.116 365.66 150.704 365.66C151.04 365.66 151.328 365.618 151.568 365.534C151.82 365.438 152.036 365.336 152.216 365.228C152.396 365.12 152.546 365.024 152.666 364.94C152.798 364.844 152.912 364.796 153.008 364.796C153.176 364.796 153.326 364.898 153.458 365.102L154.394 366.632C153.842 367.148 153.176 367.556 152.396 367.856C151.616 368.144 150.812 368.288 149.984 368.288ZM169.387 356.894C169.387 356.15 169.279 355.472 169.063 354.86C168.859 354.236 168.553 353.702 168.145 353.258C167.749 352.802 167.263 352.454 166.687 352.214C166.111 351.962 165.457 351.836 164.725 351.836C163.189 351.836 161.971 352.286 161.071 353.186C160.183 354.074 159.631 355.31 159.415 356.894H169.387ZM171.979 365.444C171.583 365.924 171.109 366.344 170.557 366.704C170.005 367.052 169.411 367.34 168.775 367.568C168.151 367.796 167.503 367.964 166.831 368.072C166.159 368.192 165.493 368.252 164.833 368.252C163.573 368.252 162.409 368.042 161.341 367.622C160.285 367.19 159.367 366.566 158.587 365.75C157.819 364.922 157.219 363.902 156.787 362.69C156.355 361.478 156.139 360.086 156.139 358.514C156.139 357.242 156.331 356.054 156.715 354.95C157.111 353.846 157.675 352.892 158.407 352.088C159.139 351.272 160.033 350.636 161.089 350.18C162.145 349.712 163.333 349.478 164.653 349.478C165.745 349.478 166.753 349.664 167.677 350.036C168.613 350.396 169.417 350.924 170.089 351.62C170.773 352.304 171.307 353.156 171.691 354.176C172.075 355.184 172.267 356.336 172.267 357.632C172.267 358.136 172.213 358.472 172.105 358.64C171.997 358.808 171.793 358.892 171.493 358.892H159.307C159.343 360.044 159.499 361.046 159.775 361.898C160.063 362.75 160.459 363.464 160.963 364.04C161.467 364.604 162.067 365.03 162.763 365.318C163.459 365.594 164.239 365.732 165.103 365.732C165.907 365.732 166.597 365.642 167.173 365.462C167.761 365.27 168.265 365.066 168.685 364.85C169.105 364.634 169.453 364.436 169.729 364.256C170.017 364.064 170.263 363.968 170.467 363.968C170.731 363.968 170.935 364.07 171.079 364.274L171.979 365.444ZM176.202 368V349.766H178.128C178.584 349.766 178.866 349.988 178.974 350.432L179.208 352.304C179.88 351.476 180.636 350.798 181.476 350.27C182.316 349.742 183.288 349.478 184.392 349.478C185.616 349.478 186.606 349.82 187.362 350.504C188.13 351.188 188.682 352.112 189.018 353.276C189.282 352.616 189.618 352.046 190.026 351.566C190.446 351.086 190.914 350.69 191.43 350.378C191.946 350.066 192.492 349.838 193.068 349.694C193.656 349.55 194.25 349.478 194.85 349.478C195.81 349.478 196.662 349.634 197.406 349.946C198.162 350.246 198.798 350.69 199.314 351.278C199.842 351.866 200.244 352.592 200.52 353.456C200.796 354.308 200.934 355.286 200.934 356.39V368H197.712V356.39C197.712 354.962 197.4 353.882 196.776 353.15C196.152 352.406 195.252 352.034 194.076 352.034C193.548 352.034 193.044 352.13 192.564 352.322C192.096 352.502 191.682 352.772 191.322 353.132C190.962 353.492 190.674 353.948 190.458 354.5C190.254 355.04 190.152 355.67 190.152 356.39V368H186.93V356.39C186.93 354.926 186.636 353.834 186.048 353.114C185.46 352.394 184.602 352.034 183.474 352.034C182.682 352.034 181.95 352.25 181.278 352.682C180.606 353.102 179.988 353.678 179.424 354.41V368H176.202ZM223.061 342.152V368H219.839V347.966C219.839 347.69 219.845 347.408 219.857 347.12C219.869 346.832 219.887 346.538 219.911 346.238L215.825 349.802C215.693 349.91 215.543 349.994 215.375 350.054C215.219 350.114 215.057 350.144 214.889 350.144C214.721 350.132 214.559 350.096 214.403 350.036C214.259 349.964 214.133 349.862 214.025 349.73L213.071 348.578L220.451 342.152H223.061Z" fill="#0D1531"/>
<rect y="27" width="227" height="20" fill="#6C6C6C" fill-opacity="0.3"/>
<rect width="227" height="20" fill="#6C6C6C" fill-opacity="0.3"/>
<rect y="54" width="132" height="20" fill="#6C6C6C" fill-opacity="0.3"/>
</svg>
